<svg xmlns="http://www.w3.org/2000/svg" fill="none" viewBox="0 0 29 1">
  <g clip-path="url(#P705PRrAr26Ia)">
    <path d="M26.264.16v.43c-.337-.014-.7-.026-1.09-.038a3003.163 3003.163 0 01-8.033-.226 135.577 135.577 0 00-2.983-.04h-.032a135.7 135.7 0 00-4.293.078C8.171.413 5.93.476 3.11.552c-.39.012-.753.024-1.09.038V.161c0-.005.05-.01.15-.013.1-.003.219-.005.355-.005H25.76c.137 0 .255.002.355.005.1.004.15.008.15.013zm0 .587v.014c0 .002-.003.004-.008.007a.147.147 0 01-.047.007l-.087.005a15.245 15.245 0 01-.363.006H2.525C2.39.786 2.27.784 2.17.78a.593.593 0 01-.15-.012c0-.063.774-.115 2.32-.159a31400.638 31400.638 0 008.31-.231 80.559 80.559 0 011.476-.02h.032c.21 0 .437 0 .679.004a80.676 80.676 0 011.5.033 271.285 271.285 0 011.277.037l6.33.177a58.96 58.96 0 011.586.065c.49.027.734.051.734.073zm2.02.02V.162c0-.025-.247-.046-.742-.063A51.563 51.563 0 0025.76.07H2.525C1.831.07 1.236.08.742.097.247.115 0 .136 0 .16v.607C0 .792.247.813.742.83c.494.017 1.089.026 1.783.026H25.76c.694 0 1.289-.009 1.783-.026.495-.018.742-.039.742-.063z" fill="#000"/>
  </g>
  <defs>
    <clipPath id="P705PRrAr26Ia">
      <path fill="#fff" d="M0 0h28.284v1H0z"/>
    </clipPath>
  </defs>
</svg>
