<svg xmlns="http://www.w3.org/2000/svg" fill="none" viewBox="0 0 26 30">
  <g clip-path="url(#6A02MnAf9xO2a)">
    <path d="M17.146 21.429v7.901c.245-.156.446-.312.602-.468l6.83-6.83c.157-.157.313-.358.47-.603h-7.902zm-2.143-.536c0-.447.156-.826.469-1.139a1.55 1.55 0 011.138-.468h9.107V1.607A1.55 1.55 0 0025.248.47 1.55 1.55 0 0024.11 0H1.61A1.55 1.55 0 00.472.469a1.55 1.55 0 00-.47 1.138v26.786c0 .446.157.826.47 1.138A1.55 1.55 0 001.61 30h13.393v-9.107z" fill="#7AF8E4"/>
  </g>
  <defs>
    <clipPath id="6A02MnAf9xO2a">
      <path fill="#fff" d="M0 0h25.72v30H0z"/>
    </clipPath>
  </defs>
</svg>
