<svg xmlns="http://www.w3.org/2000/svg" fill="none" viewBox="0 0 26 30">
  <g clip-path="url(#Ih1TEGbWpgsxa)">
    <path d="M25.181 3.214c.157 0 .285-.05.386-.15.1-.1.15-.23.15-.385V.536a.522.522 0 00-.15-.385A.522.522 0 0025.18 0H.54a.521.521 0 00-.385.15.526.526 0 00-.152.387V2.68c0 .156.05.284.15.385.101.1.23.15.386.15H25.18zM2.18 4.286c.034.614.123 1.21.268 1.791.145.58.313 1.11.502 1.59.19.48.447.966.77 1.457.324.491.623.915.896 1.272s.633.745 1.08 1.164c.446.418.815.753 1.105 1.004.29.251.683.558 1.18.92.497.364.868.629 1.113.796.246.168.609.408 1.088.72-.48.313-.842.553-1.088.72-.245.167-.616.432-1.113.795a18.9 18.9 0 00-1.18.92c-.29.252-.659.587-1.105 1.005a9.835 9.835 0 00-1.08 1.164c-.273.357-.572.781-.896 1.272-.323.491-.58.977-.77 1.457-.19.48-.357 1.01-.502 1.59a9.5 9.5 0 00-.268 1.791h21.362a9.502 9.502 0 00-.268-1.791c-.145-.58-.313-1.11-.502-1.59a8.004 8.004 0 00-.77-1.457 22.271 22.271 0 00-.896-1.272 9.843 9.843 0 00-1.08-1.164 39.323 39.323 0 00-1.105-1.004c-.29-.251-.683-.558-1.18-.92a46.13 46.13 0 00-1.113-.796A66.45 66.45 0 0015.54 15c.48-.313.842-.553 1.088-.72a46.13 46.13 0 001.113-.795c.497-.363.89-.67 1.18-.92.29-.252.659-.587 1.105-1.005a9.843 9.843 0 001.08-1.164c.273-.357.572-.781.896-1.272.323-.491.58-.977.77-1.457.19-.48.357-1.01.502-1.59.145-.58.234-1.177.268-1.791H2.179zM25.181 30c.157 0 .285-.05.386-.15.1-.101.15-.23.15-.386v-2.143a.521.521 0 00-.15-.385.521.521 0 00-.386-.15H.54a.521.521 0 00-.385.15c-.1.1-.151.23-.151.385v2.143c0 .157.05.285.15.385.101.1.23.151.386.151h24.64z" fill="#7AF8E4"/>
  </g>
  <defs>
    <clipPath id="Ih1TEGbWpgsxa">
      <path fill="#fff" d="M0 0h25.72v30H0z"/>
    </clipPath>
  </defs>
</svg>
