<svg xmlns="http://www.w3.org/2000/svg" fill="none" viewBox="0 0 28 30">
  <g clip-path="url(#srsAFwNAND7Ma)">
    <path d="M2.144 2.143h4.822v4.821H2.144V2.143zm5.893 0h5.357v4.821H8.037V2.143zM2.144 8.036h4.822v5.357H2.144V8.036zm5.893 0h5.357v5.357H8.037V8.036zm-5.893 6.428h4.822v4.822H2.144v-4.822zM14.466 2.143h5.357v4.821h-5.357V2.143zM8.037 14.464h5.357v4.822H8.037v-4.822zM20.894 2.143h4.822v4.821h-4.822V2.143zm-6.428 5.893h5.357v5.357h-5.357V8.036zM8.573 22.5v4.821a.513.513 0 01-.16.377.515.515 0 01-.376.16H6.966a.515.515 0 01-.377-.16.515.515 0 01-.159-.377V22.5c0-.145.053-.27.159-.377a.515.515 0 01.377-.159h1.071c.145 0 .27.053.377.16a.515.515 0 01.159.376zM20.894 8.036h4.822v5.357h-4.822V8.036zm-6.428 6.428h5.357v4.822h-5.357v-4.822zm6.428 0h4.822v4.822h-4.822v-4.822zm.536 8.036v4.821a.516.516 0 01-.159.377.515.515 0 01-.377.16h-1.071a.515.515 0 01-.377-.16.515.515 0 01-.159-.377V22.5c0-.145.053-.27.16-.377a.515.515 0 01.376-.159h1.071c.145 0 .27.053.377.16a.515.515 0 01.159.376zm6.429 1.071V2.143a2.06 2.06 0 00-.637-1.507A2.06 2.06 0 0025.716 0H2.144A2.06 2.06 0 00.638.636 2.06 2.06 0 000 2.143V23.57c0 .58.212 1.083.637 1.507a2.06 2.06 0 001.506.636h2.143v1.607c0 .737.262 1.368.787 1.892A2.58 2.58 0 006.966 30h1.071a2.58 2.58 0 001.892-.787 2.58 2.58 0 00.787-1.892v-1.607h6.428v1.607c0 .737.263 1.368.787 1.892a2.58 2.58 0 001.892.787h1.071a2.58 2.58 0 001.892-.787 2.58 2.58 0 00.787-1.892v-1.607h2.143a2.06 2.06 0 001.506-.636 2.06 2.06 0 00.637-1.507z" fill="#7AF8E4"/>
  </g>
  <defs>
    <clipPath id="srsAFwNAND7Ma">
      <path fill="#fff" d="M0 0h27.86v30H0z"/>
    </clipPath>
  </defs>
</svg>
