<svg xmlns="http://www.w3.org/2000/svg" fill="none" viewBox="0 0 16 20">
  <g clip-path="url(#AgHzxjXQ7mLPa)">
    <path d="M15.634 16.105L8.49 1.819c-.127-.26-.339-.39-.636-.39a.94.94 0 00-.168.022.703.703 0 00-.547.692V8.57H.712a.703.703 0 00-.692.547.723.723 0 00.045.469c.067.149.174.26.323.335l14.286 7.143a.672.672 0 00.324.078c.2 0 .368-.07.502-.212a.666.666 0 00.206-.385.678.678 0 00-.072-.441z" fill="#000"/>
  </g>
  <defs>
    <clipPath id="AgHzxjXQ7mLPa">
      <path fill="#fff" d="M0 0h15.72v20H0z"/>
    </clipPath>
  </defs>
</svg>
