<svg xmlns="http://www.w3.org/2000/svg" fill="none" viewBox="0 0 39 30">
  <g clip-path="url(#k3iCUfuuSGrFa)">
    <path d="M38.576 17.143h-2.143V6.429h2.143V0h-6.429v2.143h-15V0H10.72v6.429h2.142V8.57H6.433V6.43H.004v6.428h2.143v10.714H.004V30h6.429v-2.143h15V30h6.428v-6.429H25.72V21.43h6.428v2.142h6.429v-6.428zm-4.286 4.286v-2.143h2.143v2.143H34.29zm-10.714 6.428v-2.143h2.143v2.143h-2.143zm-21.429 0v-2.143H4.29v2.143H2.147zM4.29 8.571v2.143H2.147V8.571H4.29zm21.429 2.143h-2.143V8.571h2.143v2.143zm-19.286 0h15v2.143h2.143v10.714h-2.143v2.143h-15v-2.143H4.29V12.857h2.143v-2.143zm8.571-8.571v2.143h-2.143V2.143h2.143zm21.429 0v2.143H34.29V2.143h2.143zM34.29 6.429v10.714h-2.143v2.143H25.72v-6.429h2.142V6.43h-6.428v2.14h-6.429V6.43h2.143V4.286h15v2.143h2.143z" fill="#2796E2"/>
  </g>
  <defs>
    <clipPath id="k3iCUfuuSGrFa">
      <path fill="#fff" d="M0 0h38.58v30H0z"/>
    </clipPath>
  </defs>
</svg>
