<svg xmlns="http://www.w3.org/2000/svg" fill="none" viewBox="0 0 26 30">
  <g clip-path="url(#f99JMKwRiA9ra)">
    <path d="M15.89 18.03l.628-.628c.418-.418.628-1.219.628-2.402s-.419-2.193-1.256-3.03c-.837-.837-1.847-1.256-3.03-1.256-1.183 0-2.193.419-3.03 1.256-.837.837-1.256 1.847-1.256 3.03 0 1.183.419 2.193 1.256 3.03.837.837 1.847 1.256 3.03 1.256 1.183 0 2.193-.419 3.03-1.256zm1.515-7.575l.942.941c.628.628.942 1.83.942 3.604 0 1.775-.628 3.29-1.884 4.545-1.255 1.256-2.77 1.884-4.545 1.884s-3.29-.628-4.545-1.884C7.059 18.29 6.43 16.775 6.43 15s.628-3.29 1.884-4.545C9.57 9.199 11.085 8.57 12.86 8.57s3.29.628 4.545 1.884zM18.92 21.06l1.256-1.255c.837-.837 1.255-2.439 1.255-4.805 0-2.366-.837-4.386-2.51-6.06-1.675-1.674-3.695-2.511-6.061-2.511s-4.386.837-6.06 2.51C5.126 10.615 4.289 12.635 4.289 15s.837 4.386 2.51 6.06c1.675 1.674 3.695 2.511 6.061 2.511s4.386-.837 6.06-2.51zm3.8-10.22l.427.992c.285.661.427 1.717.427 3.168 0 1.45-.284 2.838-.854 4.16-.569 1.323-1.33 2.461-2.285 3.415-.954.955-2.092 1.716-3.415 2.285-1.322.57-2.71.854-4.16.854-1.45 0-2.838-.284-4.16-.854-1.323-.569-2.461-1.33-3.415-2.285C4.33 21.621 3.569 20.483 3 19.16A10.415 10.415 0 012.146 15c0-1.45.284-2.838.854-4.16.569-1.323 1.33-2.461 2.285-3.415C6.239 6.47 7.377 5.709 8.7 5.14c1.322-.57 2.71-.854 4.16-.854 1.45 0 2.838.284 4.16.854 1.323.569 2.461 1.33 3.415 2.285.955.954 1.716 2.092 2.286 3.415zm1.273 10.614l.862-1.478c.575-.985.862-2.643.862-4.976s-.575-4.484-1.724-6.454a12.8 12.8 0 00-4.68-4.679c-1.97-1.15-4.12-1.724-6.453-1.724s-4.484.575-6.454 1.724a12.8 12.8 0 00-4.679 4.68C.577 10.516.003 12.666.003 15s.575 4.484 1.724 6.454a12.8 12.8 0 004.68 4.679c1.97 1.15 4.12 1.724 6.453 1.724s4.484-.575 6.454-1.724a12.8 12.8 0 004.679-4.68z" fill="#9774FA"/>
  </g>
  <defs>
    <clipPath id="f99JMKwRiA9ra">
      <path fill="#fff" d="M0 0h25.72v30H0z"/>
    </clipPath>
  </defs>
</svg>
