<svg xmlns="http://www.w3.org/2000/svg" fill="none" viewBox="0 0 9 10">
  <g clip-path="url(#1XDTMW_HB8_fa)">
    <path d="M8 7.151l.288-.492c.192-.329.288-.881.288-1.659S8.384 3.505 8 2.849a4.267 4.267 0 00-1.56-1.56A4.192 4.192 0 004.29.714a4.19 4.19 0 00-2.151.575 4.267 4.267 0 00-1.56 1.56A4.192 4.192 0 00.004 5c0 .778.192 1.495.575 2.151a4.267 4.267 0 001.56 1.56 4.192 4.192 0 002.151.575 4.19 4.19 0 002.151-.575 4.267 4.267 0 001.56-1.56z" fill="#000"/>
  </g>
  <defs>
    <clipPath id="1XDTMW_HB8_fa">
      <path fill="#fff" d="M0 0h8.58v10H0z"/>
    </clipPath>
  </defs>
</svg>
