<svg xmlns="http://www.w3.org/2000/svg" fill="none" viewBox="0 0 16 18">
  <g opacity=".9" clip-path="url(#gC3MW5S_Jxlaa)">
    <path d="M3.848 15.68l.886.517c.591.345 1.586.517 2.986.517 1.4 0 2.69-.345 3.872-1.034a7.68 7.68 0 002.808-2.808A7.546 7.546 0 0015.434 9c0-1.68-.49-3.193-1.471-4.535-.981-1.343-2.249-2.272-3.802-2.788-.181-.033-.315-.01-.402.07a.393.393 0 00-.13.302l.005.769c.003.492.005.942.005 1.35 0 .65-.175 1.126-.523 1.427.382.04.725.1 1.03.18.304.081.62.212.944.392.325.181.596.404.814.668.217.265.395.616.532 1.055.137.439.206.943.206 1.512 0 .797-.265 1.486-.794 2.069.248.61.221 1.292-.08 2.05-.188.06-.459.022-.814-.111a5.407 5.407 0 01-.924-.442l-.381-.241a7.13 7.13 0 01-1.929.26 7.13 7.13 0 01-1.929-.26 8.719 8.719 0 01-.426.27 6.031 6.031 0 01-.84.387c-.38.151-.665.196-.853.136-.301-.757-.328-1.44-.08-2.049a2.976 2.976 0 01-.794-2.07c0-.568.069-1.07.206-1.506.137-.435.313-.787.527-1.055a2.73 2.73 0 01.809-.673c.325-.18.64-.311.944-.391.305-.08.648-.141 1.03-.181-.261-.241-.425-.586-.492-1.035a1.991 1.991 0 00-.452-.15 2.843 2.843 0 00-.573-.05c-.221 0-.44.071-.658.215a1.771 1.771 0 00-.557.628 1.62 1.62 0 01-.488.522c-.197.134-.363.215-.497.242l-.2.03c-.141 0-.238-.015-.292-.046-.054-.03-.07-.068-.05-.115a.553.553 0 01.09-.14.735.735 0 01.13-.121l.071-.05c.147-.067.293-.195.437-.382.144-.188.25-.358.316-.512l.1-.231a1.28 1.28 0 01.443-.618 1.56 1.56 0 01.673-.302c.24-.043.474-.067.698-.07.224-.003.41.009.557.035l.231.04a91.126 91.126 0 01.01-1.436.393.393 0 00-.13-.301c-.087-.08-.221-.104-.402-.07-1.553.515-2.82 1.444-3.802 2.787C.497 5.807.006 7.319.006 9c0 1.4.345 2.69 1.034 3.872a7.68 7.68 0 002.808 2.808zm-.92-10.045c.02.047-.003.087-.07.12-.067.02-.11.014-.13-.02-.02-.046.003-.087.07-.12.06-.04.104-.034.13.02zm.312-.341c.047.033.04.087-.02.16-.067.06-.12.07-.16.03-.048-.033-.04-.087.02-.16.066-.067.12-.077.16-.03zm.301-.452c.06.046.06.11 0 .19-.053.087-.11.108-.17.06-.06-.033-.06-.093 0-.18s.117-.11.17-.07zm.422-.422c.054.053.04.117-.04.19-.08.08-.147.09-.2.03-.061-.053-.048-.117.04-.19.08-.08.147-.09.2-.03zm.573-.251c.02.073-.024.127-.13.16-.101.027-.165.004-.192-.07-.026-.074.017-.124.131-.15.1-.04.164-.02.19.06zm.633-.05c0 .086-.057.123-.171.11-.107 0-.16-.037-.16-.11 0-.088.056-.125.17-.111.107 0 .16.037.16.11zm.582.1c-.013.073-.073.104-.18.09-.108-.02-.155-.07-.141-.15.013-.08.073-.108.18-.08.108.026.155.073.141.14z" fill="#000"/>
  </g>
  <defs>
    <clipPath id="gC3MW5S_Jxlaa">
      <path fill="#fff" d="M0 0h15.44v18H0z"/>
    </clipPath>
  </defs>
</svg>
