<svg xmlns="http://www.w3.org/2000/svg" fill="none" viewBox="0 0 16 18">
  <g opacity=".9" clip-path="url(#fOXVTrv3iiusa)">
    <path d="M10.291 2.933c-.28 1.614-.75 3.281-1.406 5.002h-.02l-.02-.01c-.107-.04-.251-.095-.432-.166a12.6 12.6 0 01-1.014-.492 12.888 12.888 0 01-1.377-.823 8.718 8.718 0 01-1.315-1.15 5.382 5.382 0 01-1.035-1.487l-.15.11c1.23-1.004 2.63-1.506 4.198-1.506.884 0 1.741.174 2.571.522zM8.433 9.03c-.14.328-.318.7-.532 1.115-2.083-.623-4.336-.934-6.76-.934A1.622 1.622 0 011.13 9c0-.83.147-1.622.442-2.376A6.596 6.596 0 012.818 4.6a8.421 8.421 0 001.24 1.673c.493.519.97.936 1.432 1.25.462.315.9.586 1.31.814.413.228.746.388 1 .482l.372.13.13.036c.06.017.104.032.131.045zm-1.075 2.13a34.565 34.565 0 01-2.45 3.796 6.502 6.502 0 01-2.351-1.868 6.51 6.51 0 01-1.286-2.732c2.023 0 4.052.268 6.087.804zm6.87-3.205c-1.405.402-2.775.5-4.107.292a28.3 28.3 0 001.285-4.711 6.582 6.582 0 011.859 1.903c.495.767.817 1.606.964 2.516zm-2.159 5.987c-1.239 1.098-2.688 1.647-4.349 1.647a6.64 6.64 0 01-1.557-.19 28.671 28.671 0 002.471-3.838 9.47 9.47 0 011.306.608c.408.231.732.437.97.618.237.18.456.371.657.572.201.201.326.337.377.407l.125.176zm2.24-4.872c-.02 1.554-.519 2.927-1.496 4.119l-.01-.01a9.883 9.883 0 00-.191-.247 5.76 5.76 0 00-.437-.447 8.304 8.304 0 00-.713-.607 10.18 10.18 0 00-1.005-.653c-.418-.245-.859-.46-1.32-.648.167-.355.314-.673.441-.954a9.65 9.65 0 00.066-.171c.03-.08.055-.137.075-.17.241.033.49.056.748.07a14.246 14.246 0 001.432.005 16.54 16.54 0 001.692-.161l.367-.06c.1-.017.184-.032.25-.046l.101-.02zm.09 3.802l.518-.886c.345-.591.517-1.586.517-2.986 0-1.4-.345-2.69-1.034-3.872a7.68 7.68 0 00-2.808-2.808A7.546 7.546 0 007.72 1.286c-1.4 0-2.69.345-3.872 1.034A7.68 7.68 0 001.04 5.128 7.546 7.546 0 00.006 9c0 1.4.345 2.69 1.034 3.872a7.68 7.68 0 002.808 2.808 7.547 7.547 0 003.872 1.034c1.4 0 2.69-.345 3.872-1.034a7.68 7.68 0 002.808-2.808z" fill="#000"/>
  </g>
  <defs>
    <clipPath id="fOXVTrv3iiusa">
      <path fill="#fff" d="M0 0h15.44v18H0z"/>
    </clipPath>
  </defs>
</svg>
